{
	"asset":{
		"generator":"Khronos glTF Blender I/O v4.5.49",
		"version":"2.0"
	},
	"scene":0,
	"scenes":[
		{
			"name":"Scene",
			"nodes":[
				4,
				5,
				7,
				8,
				9
			]
		}
	],
	"nodes":[
		{
			"mesh":0,
			"name":"Blanket",
			"scale":[
				1.3082420825958252,
				1.3221887350082397,
				13.724294662475586
			],
			"translation":[
				1,
				1.8898557424545288,
				-16.709882736206055
			]
		},
		{
			"mesh":1,
			"name":"Drawers",
			"scale":[
				0.1666666567325592,
				0.2209944874048233,
				1.3793102502822876
			],
			"translation":[
				1.9416663646697998,
				0.25966858863830566,
				-29.739816665649414
			]
		},
		{
			"mesh":2,
			"name":"Matries",
			"scale":[
				0.1666666567325592,
				0.2209944874048233,
				1.3793102502822876
			],
			"translation":[
				1,
				0.5966851711273193,
				-15.99999713897705
			]
		},
		{
			"mesh":3,
			"name":"Pillow",
			"rotation":[
				0,
				0,
				-1,
				7.852285932585801e-08
			],
			"scale":[
				-0.4756023585796356,
				-0.6306331157684326,
				-2.430178165435791
			],
			"translation":[
				1,
				2.1661622524261475,
				-4.537003993988037
			]
		},
		{
			"children":[
				0,
				1,
				2,
				3
			],
			"mesh":4,
			"name":"Bed",
			"scale":[
				6,
				4.525000095367432,
				0.7250000238418579
			]
		},
		{
			"mesh":5,
			"name":"floor",
			"scale":[
				1.2470650672912598,
				1.2470650672912598,
				1.1870651245117188
			],
			"translation":[
				10.749999046325684,
				0,
				-14.5
			]
		},
		{
			"mesh":6,
			"name":"window",
			"rotation":[
				0.7071068286895752,
				0,
				0,
				0.7071068286895752
			],
			"translation":[
				17.174999237060547,
				15.774835586547852,
				1.9000009298324585
			]
		},
		{
			"children":[
				6
			],
			"mesh":7,
			"name":"walls"
		},
		{
			"mesh":8,
			"name":"Base",
			"translation":[
				9.554000854492188,
				-0.4286389946937561,
				-13.476522445678711
			]
		},
		{
			"mesh":9,
			"name":"plain",
			"scale":[
				124.9569320678711,
				124.9569320678711,
				124.9569320678711
			],
			"translation":[
				0,
				-3.2692575454711914,
				0
			]
		}
	],
	"meshes":[
		{
			"name":"Plane.009",
			"primitives":[
				{
					"attributes":{
						"POSITION":0,
						"NORMAL":1,
						"TEXCOORD_0":2,
						"TEXCOORD_1":3
					},
					"indices":4
				}
			]
		},
		{
			"name":"Cube.008",
			"primitives":[
				{
					"attributes":{
						"POSITION":5,
						"NORMAL":6,
						"TEXCOORD_0":7
					},
					"indices":8
				}
			]
		},
		{
			"name":"Cube.010",
			"primitives":[
				{
					"attributes":{
						"POSITION":9,
						"NORMAL":10,
						"TEXCOORD_0":11
					},
					"indices":12
				}
			]
		},
		{
			"name":"Plane.008",
			"primitives":[
				{
					"attributes":{
						"POSITION":13,
						"NORMAL":14,
						"TEXCOORD_0":15
					},
					"indices":16
				}
			]
		},
		{
			"name":"Cube.002",
			"primitives":[
				{
					"attributes":{
						"POSITION":17,
						"NORMAL":18,
						"TEXCOORD_0":19,
						"TEXCOORD_1":20
					},
					"indices":21
				}
			]
		},
		{
			"name":"Plane.010",
			"primitives":[
				{
					"attributes":{
						"POSITION":22,
						"NORMAL":23,
						"TEXCOORD_0":24
					},
					"indices":25
				}
			]
		},
		{
			"name":"Plane.017",
			"primitives":[
				{
					"attributes":{
						"POSITION":26,
						"NORMAL":27,
						"TEXCOORD_0":28
					},
					"indices":29
				}
			]
		},
		{
			"name":"Plane.011",
			"primitives":[
				{
					"attributes":{
						"POSITION":30,
						"NORMAL":31,
						"TEXCOORD_0":32
					},
					"indices":33
				}
			]
		},
		{
			"name":"Plane.013",
			"primitives":[
				{
					"attributes":{
						"POSITION":34,
						"NORMAL":35,
						"TEXCOORD_0":36
					},
					"indices":37
				}
			]
		},
		{
			"name":"Plane.015",
			"primitives":[
				{
					"attributes":{
						"POSITION":38,
						"NORMAL":39,
						"TEXCOORD_0":40,
						"TEXCOORD_1":41
					},
					"indices":42
				}
			]
		}
	],
	"accessors":[
		{
			"bufferView":0,
			"componentType":5126,
			"count":5329,
			"max":[
				0.7374830842018127,
				-0.20534375309944153,
				1.0029891729354858
			],
			"min":[
				-0.7457611560821533,
				-0.826893150806427,
				-0.9907127022743225
			],
			"type":"VEC3"
		},
		{
			"bufferView":1,
			"componentType":5126,
			"count":5329,
			"type":"VEC3"
		},
		{
			"bufferView":2,
			"componentType":5126,
			"count":5329,
			"type":"VEC2"
		},
		{
			"bufferView":3,
			"componentType":5126,
			"count":5329,
			"type":"VEC2"
		},
		{
			"bufferView":4,
			"componentType":5123,
			"count":31104,
			"type":"SCALAR"
		},
		{
			"bufferView":5,
			"componentType":5126,
			"count":216,
			"max":[
				0,
				0.7749999761581421,
				19.93199920654297
			],
			"min":[
				-4.074999809265137,
				-0.7749999761581421,
				-9.5367431640625e-07
			],
			"type":"VEC3"
		},
		{
			"bufferView":6,
			"componentType":5126,
			"count":216,
			"type":"VEC3"
		},
		{
			"bufferView":7,
			"componentType":5126,
			"count":216,
			"type":"VEC2"
		},
		{
			"bufferView":8,
			"componentType":5123,
			"count":360,
			"type":"SCALAR"
		},
		{
			"bufferView":9,
			"componentType":5126,
			"count":806,
			"max":[
				5.500000476837158,
				2.4500010013580322,
				10.000001907348633
			],
			"min":[
				-5.500000476837158,
				1.460313967527327e-07,
				-10.000001907348633
			],
			"type":"VEC3"
		},
		{
			"bufferView":10,
			"componentType":5126,
			"count":806,
			"type":"VEC3"
		},
		{
			"bufferView":11,
			"componentType":5126,
			"count":806,
			"type":"VEC2"
		},
		{
			"bufferView":12,
			"componentType":5123,
			"count":4032,
			"type":"SCALAR"
		},
		{
			"bufferView":13,
			"componentType":5126,
			"count":712,
			"max":[
				0.9899242520332336,
				-0.9337368011474609,
				0.5578576326370239
			],
			"min":[
				-0.9638386964797974,
				-1.659623146057129,
				-1.068115234375
			],
			"type":"VEC3"
		},
		{
			"bufferView":14,
			"componentType":5126,
			"count":712,
			"type":"VEC3"
		},
		{
			"bufferView":15,
			"componentType":5126,
			"count":712,
			"type":"VEC2"
		},
		{
			"bufferView":16,
			"componentType":5123,
			"count":3312,
			"type":"SCALAR"
		},
		{
			"bufferView":17,
			"componentType":5126,
			"count":790,
			"max":[
				1.9999995231628418,
				2,
				1.1920928955078125e-07
			],
			"min":[
				-4.76837158203125e-07,
				0,
				-29.9999942779541
			],
			"type":"VEC3"
		},
		{
			"bufferView":18,
			"componentType":5126,
			"count":790,
			"type":"VEC3"
		},
		{
			"bufferView":19,
			"componentType":5126,
			"count":790,
			"type":"VEC2"
		},
		{
			"bufferView":20,
			"componentType":5126,
			"count":790,
			"type":"VEC2"
		},
		{
			"bufferView":21,
			"componentType":5123,
			"count":1368,
			"type":"SCALAR"
		},
		{
			"bufferView":22,
			"componentType":5126,
			"count":572,
			"max":[
				9.214285850524902,
				0,
				14.500000953674316
			],
			"min":[
				-10.750000953674316,
				-0.3437182307243347,
				-13.317930221557617
			],
			"type":"VEC3"
		},
		{
			"bufferView":23,
			"componentType":5126,
			"count":572,
			"type":"VEC3"
		},
		{
			"bufferView":24,
			"componentType":5126,
			"count":572,
			"type":"VEC2"
		},
		{
			"bufferView":25,
			"componentType":5123,
			"count":1092,
			"type":"SCALAR"
		},
		{
			"bufferView":26,
			"componentType":5126,
			"count":288,
			"max":[
				0.7000007629394531,
				0.10000035166740417,
				5.550000190734863
			],
			"min":[
				-13.549999237060547,
				-1.9900000095367432,
				-5.550000190734863
			],
			"type":"VEC3"
		},
		{
			"bufferView":27,
			"componentType":5126,
			"count":288,
			"type":"VEC3"
		},
		{
			"bufferView":28,
			"componentType":5126,
			"count":288,
			"type":"VEC2"
		},
		{
			"bufferView":29,
			"componentType":5123,
			"count":576,
			"type":"SCALAR"
		},
		{
			"bufferView":30,
			"componentType":5126,
			"count":864,
			"max":[
				21.972387313842773,
				24.4309139251709,
				2.472388505935669
			],
			"min":[
				-2.47238826751709,
				0,
				-29.472389221191406
			],
			"type":"VEC3"
		},
		{
			"bufferView":31,
			"componentType":5126,
			"count":864,
			"type":"VEC3"
		},
		{
			"bufferView":32,
			"componentType":5126,
			"count":864,
			"type":"VEC2"
		},
		{
			"bufferView":33,
			"componentType":5123,
			"count":2844,
			"type":"SCALAR"
		},
		{
			"bufferView":34,
			"componentType":5126,
			"count":120,
			"max":[
				11.554001808166504,
				0,
				15.476520538330078
			],
			"min":[
				-11.554001808166504,
				-2.84061861038208,
				-15.523480415344238
			],
			"type":"VEC3"
		},
		{
			"bufferView":35,
			"componentType":5126,
			"count":120,
			"type":"VEC3"
		},
		{
			"bufferView":36,
			"componentType":5126,
			"count":120,
			"type":"VEC2"
		},
		{
			"bufferView":37,
			"componentType":5123,
			"count":324,
			"type":"SCALAR"
		},
		{
			"bufferView":38,
			"componentType":5126,
			"count":4,
			"max":[
				1,
				0,
				1
			],
			"min":[
				-1,
				0,
				-1
			],
			"type":"VEC3"
		},
		{
			"bufferView":39,
			"componentType":5126,
			"count":4,
			"type":"VEC3"
		},
		{
			"bufferView":40,
			"componentType":5126,
			"count":4,
			"type":"VEC2"
		},
		{
			"bufferView":41,
			"componentType":5126,
			"count":4,
			"type":"VEC2"
		},
		{
			"bufferView":42,
			"componentType":5123,
			"count":6,
			"type":"SCALAR"
		}
	],
	"bufferViews":[
		{
			"buffer":0,
			"byteLength":63948,
			"byteOffset":0,
			"target":34962
		},
		{
			"buffer":0,
			"byteLength":63948,
			"byteOffset":63948,
			"target":34962
		},
		{
			"buffer":0,
			"byteLength":42632,
			"byteOffset":127896,
			"target":34962
		},
		{
			"buffer":0,
			"byteLength":42632,
			"byteOffset":170528,
			"target":34962
		},
		{
			"buffer":0,
			"byteLength":62208,
			"byteOffset":213160,
			"target":34963
		},
		{
			"buffer":0,
			"byteLength":2592,
			"byteOffset":275368,
			"target":34962
		},
		{
			"buffer":0,
			"byteLength":2592,
			"byteOffset":277960,
			"target":34962
		},
		{
			"buffer":0,
			"byteLength":1728,
			"byteOffset":280552,
			"target":34962
		},
		{
			"buffer":0,
			"byteLength":720,
			"byteOffset":282280,
			"target":34963
		},
		{
			"buffer":0,
			"byteLength":9672,
			"byteOffset":283000,
			"target":34962
		},
		{
			"buffer":0,
			"byteLength":9672,
			"byteOffset":292672,
			"target":34962
		},
		{
			"buffer":0,
			"byteLength":6448,
			"byteOffset":302344,
			"target":34962
		},
		{
			"buffer":0,
			"byteLength":8064,
			"byteOffset":308792,
			"target":34963
		},
		{
			"buffer":0,
			"byteLength":8544,
			"byteOffset":316856,
			"target":34962
		},
		{
			"buffer":0,
			"byteLength":8544,
			"byteOffset":325400,
			"target":34962
		},
		{
			"buffer":0,
			"byteLength":5696,
			"byteOffset":333944,
			"target":34962
		},
		{
			"buffer":0,
			"byteLength":6624,
			"byteOffset":339640,
			"target":34963
		},
		{
			"buffer":0,
			"byteLength":9480,
			"byteOffset":346264,
			"target":34962
		},
		{
			"buffer":0,
			"byteLength":9480,
			"byteOffset":355744,
			"target":34962
		},
		{
			"buffer":0,
			"byteLength":6320,
			"byteOffset":365224,
			"target":34962
		},
		{
			"buffer":0,
			"byteLength":6320,
			"byteOffset":371544,
			"target":34962
		},
		{
			"buffer":0,
			"byteLength":2736,
			"byteOffset":377864,
			"target":34963
		},
		{
			"buffer":0,
			"byteLength":6864,
			"byteOffset":380600,
			"target":34962
		},
		{
			"buffer":0,
			"byteLength":6864,
			"byteOffset":387464,
			"target":34962
		},
		{
			"buffer":0,
			"byteLength":4576,
			"byteOffset":394328,
			"target":34962
		},
		{
			"buffer":0,
			"byteLength":2184,
			"byteOffset":398904,
			"target":34963
		},
		{
			"buffer":0,
			"byteLength":3456,
			"byteOffset":401088,
			"target":34962
		},
		{
			"buffer":0,
			"byteLength":3456,
			"byteOffset":404544,
			"target":34962
		},
		{
			"buffer":0,
			"byteLength":2304,
			"byteOffset":408000,
			"target":34962
		},
		{
			"buffer":0,
			"byteLength":1152,
			"byteOffset":410304,
			"target":34963
		},
		{
			"buffer":0,
			"byteLength":10368,
			"byteOffset":411456,
			"target":34962
		},
		{
			"buffer":0,
			"byteLength":10368,
			"byteOffset":421824,
			"target":34962
		},
		{
			"buffer":0,
			"byteLength":6912,
			"byteOffset":432192,
			"target":34962
		},
		{
			"buffer":0,
			"byteLength":5688,
			"byteOffset":439104,
			"target":34963
		},
		{
			"buffer":0,
			"byteLength":1440,
			"byteOffset":444792,
			"target":34962
		},
		{
			"buffer":0,
			"byteLength":1440,
			"byteOffset":446232,
			"target":34962
		},
		{
			"buffer":0,
			"byteLength":960,
			"byteOffset":447672,
			"target":34962
		},
		{
			"buffer":0,
			"byteLength":648,
			"byteOffset":448632,
			"target":34963
		},
		{
			"buffer":0,
			"byteLength":48,
			"byteOffset":449280,
			"target":34962
		},
		{
			"buffer":0,
			"byteLength":48,
			"byteOffset":449328,
			"target":34962
		},
		{
			"buffer":0,
			"byteLength":32,
			"byteOffset":449376,
			"target":34962
		},
		{
			"buffer":0,
			"byteLength":32,
			"byteOffset":449408,
			"target":34962
		},
		{
			"buffer":0,
			"byteLength":12,
			"byteOffset":449440,
			"target":34963
		}
	],
	"buffers":[
		{
			"byteLength":449452,
			"uri":"bedroom.bin"
		}
	]
}
